<svg xmlns="http://www.w3.org/2000/svg" viewBox="0 0 183.25 18.79"><defs><style>.cls-1{fill:#fff;}.cls-2{fill:#838bc5;}</style></defs><title>taomeadows</title><g id="Layer_2" data-name="Layer 2"><g id="Layer_7" data-name="Layer 7"><path class="cls-1" d="M9.25,18.54H4.39v-14H0v-4H13.63v4H9.25Z"/><path class="cls-1" d="M26.61,18.54l-.88-3.37H19.88L19,18.54H13.63L19.5.48H26l5.94,18.06Zm-1.89-7.36-.78-2.95c-.18-.66-.4-1.5-.66-2.55s-.42-1.78-.51-2.24c-.07.42-.22,1.11-.43,2.07s-.7,2.85-1.45,5.67Z"/><path class="cls-1" d="M50.08,9.52c0,3-.75,5.33-2.23,6.91s-3.66,2.36-6.52,2.36a8.49,8.49,0,0,1-6.49-2.38c-1.51-1.58-2.26-3.89-2.26-6.91s.75-5.28,2.24-6.86S38.5.27,41.35.27s5,.78,6.51,2.35S50.08,6.49,50.08,9.52Zm-12.38,0q0,5.22,3.63,5.22a3.09,3.09,0,0,0,2.73-1.27,6.88,6.88,0,0,0,.9-4,7,7,0,0,0-.91-4,3.07,3.07,0,0,0-2.7-1.28Q37.71,4.26,37.7,9.52Z"/><path class="cls-2" d="M61.86,18.27,58.18,5.32h-.11c.17,2.2.26,3.92.26,5.14v7.81H54V.28h6.47l3.76,12.78h.09L68,.28h6.49v18H70V10.39c0-.41,0-.87,0-1.37s.07-1.73.16-3.68h-.11L66.48,18.27Z"/><path class="cls-2" d="M88.43,18.27H77.75V.28H88.43v3.9H82.61V7H88v3.9H82.61v3.4h5.82Z"/><path class="cls-2" d="M102,18.27l-.89-3.37H95.26l-.91,3.37H89L94.88.21h6.48l6,18.06Zm-1.89-7.36L99.32,8q-.27-1-.66-2.55c-.26-1-.43-1.78-.51-2.24-.07.42-.22,1.11-.44,2.07S97,8.09,96.27,10.91Z"/><path class="cls-2" d="M123.89,8.9a9.32,9.32,0,0,1-2.48,6.94,9.54,9.54,0,0,1-7,2.43h-5.82V.28h6.23a9.37,9.37,0,0,1,6.68,2.22A8.36,8.36,0,0,1,123.89,8.9Zm-5,.17a5.75,5.75,0,0,0-1-3.67,3.65,3.65,0,0,0-3-1.19h-1.42V14.29h1.08A3.91,3.91,0,0,0,117.81,13,6.21,6.21,0,0,0,118.85,9.07Z"/><path class="cls-2" d="M143.32,9.25q0,4.54-2.23,6.91c-1.48,1.57-3.66,2.36-6.52,2.36a8.5,8.5,0,0,1-6.49-2.38q-2.27-2.37-2.26-6.91c0-3,.75-5.28,2.25-6.86S131.74,0,134.59,0s5,.78,6.51,2.35S143.32,6.22,143.32,9.25Zm-12.38,0q0,5.22,3.63,5.22a3.12,3.12,0,0,0,2.74-1.27,7,7,0,0,0,.89-3.95,7,7,0,0,0-.91-4A3.09,3.09,0,0,0,134.59,4Q130.95,4,130.94,9.25Z"/><path class="cls-2" d="M165.36,18.27h-5.74l-1.72-7.84c-.09-.32-.22-1-.39-1.95s-.31-1.79-.39-2.45c-.07.53-.17,1.2-.32,2s-.29,1.52-.44,2.18-.74,3.36-1.79,8.07h-5.74l-4.46-18h4.69l2,9c.44,2,.74,3.58.91,4.76.1-.83.29-2,.57-3.4s.53-2.63.77-3.57L154.86.28h4.5l1.54,6.81c.26,1.09.53,2.35.8,3.78s.45,2.49.54,3.19c.11-.91.4-2.49.87-4.73l2-9h4.68Z"/><path class="cls-2" d="M183.25,12.81a5.27,5.27,0,0,1-.85,3,5.51,5.51,0,0,1-2.44,2,9.11,9.11,0,0,1-3.76.72,15.76,15.76,0,0,1-3-.25,11.83,11.83,0,0,1-2.54-.88V13.06a15.12,15.12,0,0,0,2.89,1.11,10.69,10.69,0,0,0,2.76.4,2.7,2.7,0,0,0,1.59-.38,1.16,1.16,0,0,0,.5-1,1,1,0,0,0-.2-.65,2.52,2.52,0,0,0-.65-.56c-.3-.19-1.1-.57-2.4-1.15a11.88,11.88,0,0,1-2.64-1.56,4.76,4.76,0,0,1-1.3-1.72,5.76,5.76,0,0,1-.42-2.3,4.6,4.6,0,0,1,1.8-3.87,8,8,0,0,1,5-1.4,13.94,13.94,0,0,1,5.69,1.3l-1.49,3.75a10.8,10.8,0,0,0-4.35-1.16,2.22,2.22,0,0,0-1.38.34,1,1,0,0,0-.43.82,1.19,1.19,0,0,0,.55.95,20.57,20.57,0,0,0,3,1.52,8.23,8.23,0,0,1,3.23,2.25A4.9,4.9,0,0,1,183.25,12.81Z"/></g></g></svg>